<svg width="73" height="12" viewBox="0 0 73 12" fill="none" xmlns="http://www.w3.org/2000/svg">
<path d="M6.846 8.83H2.59L1.806 11H0.462L3.99 1.298H5.46L8.974 11H7.63L6.846 8.83ZM6.482 7.794L4.718 2.866L2.954 7.794H6.482ZM11.7856 0.64V11H10.5116V0.64H11.7856ZM20.7609 3.328V11H19.4869V9.866C19.2442 10.258 18.9036 10.566 18.4649 10.79C18.0356 11.0047 17.5596 11.112 17.0369 11.112C16.4396 11.112 15.9029 10.9907 15.4269 10.748C14.9509 10.496 14.5729 10.1227 14.2929 9.628C14.0222 9.13333 13.8869 8.53133 13.8869 7.822V3.328H15.1469V7.654C15.1469 8.41 15.3382 8.99333 15.7209 9.404C16.1036 9.80533 16.6262 10.006 17.2889 10.006C17.9702 10.006 18.5069 9.796 18.8989 9.376C19.2909 8.956 19.4869 8.34467 19.4869 7.542V3.328H20.7609ZM24.186 4.574C24.41 4.13533 24.7273 3.79467 25.138 3.552C25.558 3.30933 26.0667 3.188 26.664 3.188V4.504H26.328C24.9 4.504 24.186 5.27867 24.186 6.828V11H22.912V3.328H24.186V4.574ZM27.6586 7.136C27.6586 6.352 27.8173 5.666 28.1346 5.078C28.452 4.48067 28.886 4.01867 29.4366 3.692C29.9966 3.36533 30.6173 3.202 31.2986 3.202C31.9706 3.202 32.554 3.34667 33.0486 3.636C33.5433 3.92533 33.912 4.28933 34.1546 4.728V3.328H35.4426V11H34.1546V9.572C33.9026 10.02 33.5246 10.3933 33.0206 10.692C32.526 10.9813 31.9473 11.126 31.2846 11.126C30.6033 11.126 29.9873 10.958 29.4366 10.622C28.886 10.286 28.452 9.81467 28.1346 9.208C27.8173 8.60133 27.6586 7.91067 27.6586 7.136ZM34.1546 7.15C34.1546 6.57133 34.038 6.06733 33.8046 5.638C33.5713 5.20867 33.254 4.882 32.8526 4.658C32.4606 4.42467 32.0266 4.308 31.5506 4.308C31.0746 4.308 30.6406 4.42 30.2486 4.644C29.8566 4.868 29.544 5.19467 29.3106 5.624C29.0773 6.05333 28.9606 6.55733 28.9606 7.136C28.9606 7.724 29.0773 8.23733 29.3106 8.676C29.544 9.10533 29.8566 9.43667 30.2486 9.67C30.6406 9.894 31.0746 10.006 31.5506 10.006C32.0266 10.006 32.4606 9.894 32.8526 9.67C33.254 9.43667 33.5713 9.10533 33.8046 8.676C34.038 8.23733 34.1546 7.72867 34.1546 7.15ZM44.422 11.098C43.778 11.098 43.1993 10.986 42.686 10.762C42.182 10.5287 41.7853 10.2113 41.496 9.81C41.2067 9.39933 41.0573 8.928 41.048 8.396H42.406C42.4527 8.85333 42.6393 9.24067 42.966 9.558C43.302 9.866 43.7873 10.02 44.422 10.02C45.0287 10.02 45.5047 9.87067 45.85 9.572C46.2047 9.264 46.382 8.872 46.382 8.396C46.382 8.02267 46.2793 7.71933 46.074 7.486C45.8687 7.25267 45.612 7.07533 45.304 6.954C44.996 6.83267 44.5807 6.702 44.058 6.562C43.414 6.394 42.896 6.226 42.504 6.058C42.1213 5.89 41.79 5.62867 41.51 5.274C41.2393 4.91 41.104 4.42467 41.104 3.818C41.104 3.286 41.2393 2.81467 41.51 2.404C41.7807 1.99333 42.1587 1.676 42.644 1.452C43.1387 1.228 43.7033 1.116 44.338 1.116C45.2527 1.116 45.9993 1.34467 46.578 1.802C47.166 2.25933 47.4973 2.866 47.572 3.622H46.172C46.1253 3.24867 45.9293 2.922 45.584 2.642C45.2387 2.35267 44.7813 2.208 44.212 2.208C43.68 2.208 43.246 2.348 42.91 2.628C42.574 2.89867 42.406 3.28133 42.406 3.776C42.406 4.13067 42.504 4.42 42.7 4.644C42.9053 4.868 43.1527 5.04067 43.442 5.162C43.7407 5.274 44.156 5.40467 44.688 5.554C45.332 5.73133 45.85 5.90867 46.242 6.086C46.634 6.254 46.97 6.52 47.25 6.884C47.53 7.23867 47.67 7.724 47.67 8.34C47.67 8.816 47.544 9.264 47.292 9.684C47.04 10.104 46.6667 10.4447 46.172 10.706C45.6773 10.9673 45.094 11.098 44.422 11.098ZM51.0988 4.378V8.9C51.0988 9.27333 51.1781 9.53933 51.3368 9.698C51.4955 9.84733 51.7708 9.922 52.1628 9.922H53.1008V11H51.9528C51.2435 11 50.7115 10.8367 50.3568 10.51C50.0021 10.1833 49.8248 9.64667 49.8248 8.9V4.378H48.8308V3.328H49.8248V1.396H51.0988V3.328H53.1008V4.378H51.0988ZM54.1684 7.136C54.1684 6.352 54.3271 5.666 54.6444 5.078C54.9617 4.48067 55.3957 4.01867 55.9464 3.692C56.5064 3.36533 57.1271 3.202 57.8084 3.202C58.4804 3.202 59.0637 3.34667 59.5584 3.636C60.0531 3.92533 60.4217 4.28933 60.6644 4.728V3.328H61.9524V11H60.6644V9.572C60.4124 10.02 60.0344 10.3933 59.5304 10.692C59.0357 10.9813 58.4571 11.126 57.7944 11.126C57.1131 11.126 56.4971 10.958 55.9464 10.622C55.3957 10.286 54.9617 9.81467 54.6444 9.208C54.3271 8.60133 54.1684 7.91067 54.1684 7.136ZM60.6644 7.15C60.6644 6.57133 60.5477 6.06733 60.3144 5.638C60.0811 5.20867 59.7637 4.882 59.3624 4.658C58.9704 4.42467 58.5364 4.308 58.0604 4.308C57.5844 4.308 57.1504 4.42 56.7584 4.644C56.3664 4.868 56.0537 5.19467 55.8204 5.624C55.5871 6.05333 55.4704 6.55733 55.4704 7.136C55.4704 7.724 55.5871 8.23733 55.8204 8.676C56.0537 9.10533 56.3664 9.43667 56.7584 9.67C57.1504 9.894 57.5844 10.006 58.0604 10.006C58.5364 10.006 58.9704 9.894 59.3624 9.67C59.7637 9.43667 60.0811 9.10533 60.3144 8.676C60.5477 8.23733 60.6644 7.72867 60.6644 7.15ZM65.3793 4.574C65.6033 4.13533 65.9207 3.79467 66.3313 3.552C66.7513 3.30933 67.26 3.188 67.8573 3.188V4.504H67.5213C66.0933 4.504 65.3793 5.27867 65.3793 6.828V11H64.1053V3.328H65.3793V4.574ZM70.882 4.378V8.9C70.882 9.27333 70.9613 9.53933 71.12 9.698C71.2787 9.84733 71.554 9.922 71.946 9.922H72.884V11H71.736C71.0267 11 70.4947 10.8367 70.14 10.51C69.7853 10.1833 69.608 9.64667 69.608 8.9V4.378H68.614V3.328H69.608V1.396H70.882V3.328H72.884V4.378H70.882Z" fill="#474646"/>
</svg>
