<svg width="145" height="15" viewBox="0 0 145 15" fill="none" xmlns="http://www.w3.org/2000/svg">
<path d="M6.846 8.83H2.59L1.806 11H0.462L3.99 1.298H5.46L8.974 11H7.63L6.846 8.83ZM6.482 7.794L4.718 2.866L2.954 7.794H6.482ZM11.7856 0.64V11H10.5116V0.64H11.7856ZM20.7609 3.328V11H19.4869V9.866C19.2442 10.258 18.9036 10.566 18.4649 10.79C18.0356 11.0047 17.5596 11.112 17.0369 11.112C16.4396 11.112 15.9029 10.9907 15.4269 10.748C14.9509 10.496 14.5729 10.1227 14.2929 9.628C14.0222 9.13333 13.8869 8.53133 13.8869 7.822V3.328H15.1469V7.654C15.1469 8.41 15.3382 8.99333 15.7209 9.404C16.1036 9.80533 16.6262 10.006 17.2889 10.006C17.9702 10.006 18.5069 9.796 18.8989 9.376C19.2909 8.956 19.4869 8.34467 19.4869 7.542V3.328H20.7609ZM24.186 4.574C24.41 4.13533 24.7273 3.79467 25.138 3.552C25.558 3.30933 26.0667 3.188 26.664 3.188V4.504H26.328C24.9 4.504 24.186 5.27867 24.186 6.828V11H22.912V3.328H24.186V4.574ZM27.6586 7.136C27.6586 6.352 27.8173 5.666 28.1346 5.078C28.452 4.48067 28.886 4.01867 29.4366 3.692C29.9966 3.36533 30.6173 3.202 31.2986 3.202C31.9706 3.202 32.554 3.34667 33.0486 3.636C33.5433 3.92533 33.912 4.28933 34.1546 4.728V3.328H35.4426V11H34.1546V9.572C33.9026 10.02 33.5246 10.3933 33.0206 10.692C32.526 10.9813 31.9473 11.126 31.2846 11.126C30.6033 11.126 29.9873 10.958 29.4366 10.622C28.886 10.286 28.452 9.81467 28.1346 9.208C27.8173 8.60133 27.6586 7.91067 27.6586 7.136ZM34.1546 7.15C34.1546 6.57133 34.038 6.06733 33.8046 5.638C33.5713 5.20867 33.254 4.882 32.8526 4.658C32.4606 4.42467 32.0266 4.308 31.5506 4.308C31.0746 4.308 30.6406 4.42 30.2486 4.644C29.8566 4.868 29.544 5.19467 29.3106 5.624C29.0773 6.05333 28.9606 6.55733 28.9606 7.136C28.9606 7.724 29.0773 8.23733 29.3106 8.676C29.544 9.10533 29.8566 9.43667 30.2486 9.67C30.6406 9.894 31.0746 10.006 31.5506 10.006C32.0266 10.006 32.4606 9.894 32.8526 9.67C33.254 9.43667 33.5713 9.10533 33.8046 8.676C34.038 8.23733 34.1546 7.72867 34.1546 7.15ZM47.852 4.098C47.852 4.91 47.572 5.58667 47.012 6.128C46.4613 6.66 45.6167 6.926 44.478 6.926H42.602V11H41.328V1.242H44.478C45.5793 1.242 46.4147 1.508 46.984 2.04C47.5627 2.572 47.852 3.258 47.852 4.098ZM44.478 5.876C45.1873 5.876 45.71 5.722 46.046 5.414C46.382 5.106 46.55 4.66733 46.55 4.098C46.55 2.894 45.8593 2.292 44.478 2.292H42.602V5.876H44.478ZM48.9594 7.136C48.9594 6.352 49.1181 5.666 49.4354 5.078C49.7528 4.48067 50.1868 4.01867 50.7374 3.692C51.2974 3.36533 51.9181 3.202 52.5994 3.202C53.2714 3.202 53.8548 3.34667 54.3494 3.636C54.8441 3.92533 55.2128 4.28933 55.4554 4.728V3.328H56.7434V11H55.4554V9.572C55.2034 10.02 54.8254 10.3933 54.3214 10.692C53.8268 10.9813 53.2481 11.126 52.5854 11.126C51.9041 11.126 51.2881 10.958 50.7374 10.622C50.1868 10.286 49.7528 9.81467 49.4354 9.208C49.1181 8.60133 48.9594 7.91067 48.9594 7.136ZM55.4554 7.15C55.4554 6.57133 55.3388 6.06733 55.1054 5.638C54.8721 5.20867 54.5548 4.882 54.1534 4.658C53.7614 4.42467 53.3274 4.308 52.8514 4.308C52.3754 4.308 51.9414 4.42 51.5494 4.644C51.1574 4.868 50.8448 5.19467 50.6114 5.624C50.3781 6.05333 50.2614 6.55733 50.2614 7.136C50.2614 7.724 50.3781 8.23733 50.6114 8.676C50.8448 9.10533 51.1574 9.43667 51.5494 9.67C51.9414 9.894 52.3754 10.006 52.8514 10.006C53.3274 10.006 53.7614 9.894 54.1534 9.67C54.5548 9.43667 54.8721 9.10533 55.1054 8.676C55.3388 8.23733 55.4554 7.72867 55.4554 7.15ZM60.1704 4.574C60.3944 4.13533 60.7117 3.79467 61.1224 3.552C61.5424 3.30933 62.051 3.188 62.6484 3.188V4.504H62.3124C60.8844 4.504 60.1704 5.27867 60.1704 6.828V11H58.8964V3.328H60.1704V4.574ZM63.643 7.136C63.643 6.352 63.8017 5.666 64.119 5.078C64.4363 4.48067 64.8703 4.01867 65.421 3.692C65.981 3.36533 66.6017 3.202 67.283 3.202C67.955 3.202 68.5383 3.34667 69.033 3.636C69.5277 3.92533 69.8963 4.28933 70.139 4.728V3.328H71.427V11H70.139V9.572C69.887 10.02 69.509 10.3933 69.005 10.692C68.5103 10.9813 67.9317 11.126 67.269 11.126C66.5877 11.126 65.9717 10.958 65.421 10.622C64.8703 10.286 64.4363 9.81467 64.119 9.208C63.8017 8.60133 63.643 7.91067 63.643 7.136ZM70.139 7.15C70.139 6.57133 70.0223 6.06733 69.789 5.638C69.5557 5.20867 69.2383 4.882 68.837 4.658C68.445 4.42467 68.011 4.308 67.535 4.308C67.059 4.308 66.625 4.42 66.233 4.644C65.841 4.868 65.5283 5.19467 65.295 5.624C65.0617 6.05333 64.945 6.55733 64.945 7.136C64.945 7.724 65.0617 8.23733 65.295 8.676C65.5283 9.10533 65.841 9.43667 66.233 9.67C66.625 9.894 67.059 10.006 67.535 10.006C68.011 10.006 68.445 9.894 68.837 9.67C69.2383 9.43667 69.5557 9.10533 69.789 8.676C70.0223 8.23733 70.139 7.72867 70.139 7.15ZM78.5864 2.278V5.54H82.1424V6.59H78.5864V9.95H82.5624V11H77.3124V1.228H82.5624V2.278H78.5864ZM93.7161 3.188C94.3134 3.188 94.8454 3.314 95.3121 3.566C95.7788 3.80867 96.1474 4.17733 96.4181 4.672C96.6888 5.16667 96.8241 5.76867 96.8241 6.478V11H95.5641V6.66C95.5641 5.89467 95.3728 5.31133 94.9901 4.91C94.6168 4.49933 94.1081 4.294 93.4641 4.294C92.8014 4.294 92.2741 4.50867 91.8821 4.938C91.4901 5.358 91.2941 5.96933 91.2941 6.772V11H90.0341V6.66C90.0341 5.89467 89.8428 5.31133 89.4601 4.91C89.0868 4.49933 88.5781 4.294 87.9341 4.294C87.2714 4.294 86.7441 4.50867 86.3521 4.938C85.9601 5.358 85.7641 5.96933 85.7641 6.772V11H84.4901V3.328H85.7641V4.434C86.0161 4.03267 86.3521 3.72467 86.7721 3.51C87.2014 3.29533 87.6728 3.188 88.1861 3.188C88.8301 3.188 89.3994 3.33267 89.8941 3.622C90.3888 3.91133 90.7574 4.336 91.0001 4.896C91.2148 4.35467 91.5694 3.93467 92.0641 3.636C92.5588 3.33733 93.1094 3.188 93.7161 3.188ZM100.188 4.742C100.44 4.30333 100.813 3.93933 101.308 3.65C101.812 3.35133 102.395 3.202 103.058 3.202C103.739 3.202 104.355 3.36533 104.906 3.692C105.466 4.01867 105.905 4.48067 106.222 5.078C106.539 5.666 106.698 6.352 106.698 7.136C106.698 7.91067 106.539 8.60133 106.222 9.208C105.905 9.81467 105.466 10.286 104.906 10.622C104.355 10.958 103.739 11.126 103.058 11.126C102.405 11.126 101.826 10.9813 101.322 10.692C100.827 10.3933 100.449 10.0247 100.188 9.586V14.64H98.9139V3.328H100.188V4.742ZM105.396 7.136C105.396 6.55733 105.279 6.05333 105.046 5.624C104.813 5.19467 104.495 4.868 104.094 4.644C103.702 4.42 103.268 4.308 102.792 4.308C102.325 4.308 101.891 4.42467 101.49 4.658C101.098 4.882 100.781 5.21333 100.538 5.652C100.305 6.08133 100.188 6.58067 100.188 7.15C100.188 7.72867 100.305 8.23733 100.538 8.676C100.781 9.10533 101.098 9.43667 101.49 9.67C101.891 9.894 102.325 10.006 102.792 10.006C103.268 10.006 103.702 9.894 104.094 9.67C104.495 9.43667 104.813 9.10533 105.046 8.676C105.279 8.23733 105.396 7.724 105.396 7.136ZM109.649 4.574C109.873 4.13533 110.19 3.79467 110.601 3.552C111.021 3.30933 111.53 3.188 112.127 3.188V4.504H111.791C110.363 4.504 109.649 5.27867 109.649 6.828V11H108.375V3.328H109.649V4.574ZM120.598 6.87C120.598 7.11267 120.584 7.36933 120.556 7.64H114.424C114.47 8.396 114.727 8.98867 115.194 9.418C115.67 9.838 116.244 10.048 116.916 10.048C117.466 10.048 117.924 9.922 118.288 9.67C118.661 9.40867 118.922 9.06333 119.072 8.634H120.444C120.238 9.37133 119.828 9.97333 119.212 10.44C118.596 10.8973 117.83 11.126 116.916 11.126C116.188 11.126 115.534 10.9627 114.956 10.636C114.386 10.3093 113.938 9.84733 113.612 9.25C113.285 8.64333 113.122 7.94333 113.122 7.15C113.122 6.35667 113.28 5.66133 113.598 5.064C113.915 4.46667 114.358 4.00933 114.928 3.692C115.506 3.36533 116.169 3.202 116.916 3.202C117.644 3.202 118.288 3.36067 118.848 3.678C119.408 3.99533 119.837 4.434 120.136 4.994C120.444 5.54467 120.598 6.17 120.598 6.87ZM119.282 6.604C119.282 6.11867 119.174 5.70333 118.96 5.358C118.745 5.00333 118.451 4.73733 118.078 4.56C117.714 4.37333 117.308 4.28 116.86 4.28C116.216 4.28 115.665 4.48533 115.208 4.896C114.76 5.30667 114.503 5.876 114.438 6.604H119.282ZM124.995 11.126C124.407 11.126 123.88 11.028 123.413 10.832C122.947 10.6267 122.578 10.3467 122.307 9.992C122.037 9.628 121.887 9.21267 121.859 8.746H123.175C123.213 9.12867 123.39 9.44133 123.707 9.684C124.034 9.92667 124.459 10.048 124.981 10.048C125.467 10.048 125.849 9.94067 126.129 9.726C126.409 9.51133 126.549 9.24067 126.549 8.914C126.549 8.578 126.4 8.33067 126.101 8.172C125.803 8.004 125.341 7.84067 124.715 7.682C124.146 7.53267 123.679 7.38333 123.315 7.234C122.961 7.07533 122.653 6.84667 122.391 6.548C122.139 6.24 122.013 5.83867 122.013 5.344C122.013 4.952 122.13 4.59267 122.363 4.266C122.597 3.93933 122.928 3.68267 123.357 3.496C123.787 3.3 124.277 3.202 124.827 3.202C125.677 3.202 126.363 3.41667 126.885 3.846C127.408 4.27533 127.688 4.86333 127.725 5.61H126.451C126.423 5.20867 126.26 4.88667 125.961 4.644C125.672 4.40133 125.28 4.28 124.785 4.28C124.328 4.28 123.964 4.378 123.693 4.574C123.423 4.77 123.287 5.02667 123.287 5.344C123.287 5.596 123.367 5.806 123.525 5.974C123.693 6.13267 123.899 6.26333 124.141 6.366C124.393 6.45933 124.739 6.56667 125.177 6.688C125.728 6.83733 126.176 6.98667 126.521 7.136C126.867 7.276 127.161 7.49067 127.403 7.78C127.655 8.06933 127.786 8.44733 127.795 8.914C127.795 9.334 127.679 9.712 127.445 10.048C127.212 10.384 126.881 10.65 126.451 10.846C126.031 11.0327 125.546 11.126 124.995 11.126ZM129.118 7.136C129.118 6.352 129.276 5.666 129.594 5.078C129.911 4.48067 130.345 4.01867 130.896 3.692C131.456 3.36533 132.076 3.202 132.758 3.202C133.43 3.202 134.013 3.34667 134.508 3.636C135.002 3.92533 135.371 4.28933 135.614 4.728V3.328H136.902V11H135.614V9.572C135.362 10.02 134.984 10.3933 134.48 10.692C133.985 10.9813 133.406 11.126 132.744 11.126C132.062 11.126 131.446 10.958 130.896 10.622C130.345 10.286 129.911 9.81467 129.594 9.208C129.276 8.60133 129.118 7.91067 129.118 7.136ZM135.614 7.15C135.614 6.57133 135.497 6.06733 135.264 5.638C135.03 5.20867 134.713 4.882 134.312 4.658C133.92 4.42467 133.486 4.308 133.01 4.308C132.534 4.308 132.1 4.42 131.708 4.644C131.316 4.868 131.003 5.19467 130.77 5.624C130.536 6.05333 130.42 6.55733 130.42 7.136C130.42 7.724 130.536 8.23733 130.77 8.676C131.003 9.10533 131.316 9.43667 131.708 9.67C132.1 9.894 132.534 10.006 133.01 10.006C133.486 10.006 133.92 9.894 134.312 9.67C134.713 9.43667 135.03 9.10533 135.264 8.676C135.497 8.23733 135.614 7.72867 135.614 7.15ZM141.771 11.126C141.183 11.126 140.655 11.028 140.189 10.832C139.722 10.6267 139.353 10.3467 139.083 9.992C138.812 9.628 138.663 9.21267 138.635 8.746H139.951C139.988 9.12867 140.165 9.44133 140.483 9.684C140.809 9.92667 141.234 10.048 141.757 10.048C142.242 10.048 142.625 9.94067 142.905 9.726C143.185 9.51133 143.325 9.24067 143.325 8.914C143.325 8.578 143.175 8.33067 142.877 8.172C142.578 8.004 142.116 7.84067 141.491 7.682C140.921 7.53267 140.455 7.38333 140.091 7.234C139.736 7.07533 139.428 6.84667 139.167 6.548C138.915 6.24 138.789 5.83867 138.789 5.344C138.789 4.952 138.905 4.59267 139.139 4.266C139.372 3.93933 139.703 3.68267 140.133 3.496C140.562 3.3 141.052 3.202 141.603 3.202C142.452 3.202 143.138 3.41667 143.661 3.846C144.183 4.27533 144.463 4.86333 144.501 5.61H143.227C143.199 5.20867 143.035 4.88667 142.737 4.644C142.447 4.40133 142.055 4.28 141.561 4.28C141.103 4.28 140.739 4.378 140.469 4.574C140.198 4.77 140.063 5.02667 140.063 5.344C140.063 5.596 140.142 5.806 140.301 5.974C140.469 6.13267 140.674 6.26333 140.917 6.366C141.169 6.45933 141.514 6.56667 141.953 6.688C142.503 6.83733 142.951 6.98667 143.297 7.136C143.642 7.276 143.936 7.49067 144.179 7.78C144.431 8.06933 144.561 8.44733 144.571 8.914C144.571 9.334 144.454 9.712 144.221 10.048C143.987 10.384 143.656 10.65 143.227 10.846C142.807 11.0327 142.321 11.126 141.771 11.126Z" fill="#474646"/>
</svg>
