<svg width="157" height="12" viewBox="0 0 157 12" fill="none" xmlns="http://www.w3.org/2000/svg">
<path d="M0.602 6.114C0.602 5.162 0.816667 4.308 1.246 3.552C1.67533 2.78667 2.25867 2.18933 2.996 1.76C3.74267 1.33067 4.56867 1.116 5.474 1.116C6.538 1.116 7.46667 1.37267 8.26 1.886C9.05333 2.39933 9.632 3.12733 9.996 4.07H8.47C8.19933 3.482 7.80733 3.02933 7.294 2.712C6.79 2.39467 6.18333 2.236 5.474 2.236C4.79267 2.236 4.18133 2.39467 3.64 2.712C3.09867 3.02933 2.674 3.482 2.366 4.07C2.058 4.64867 1.904 5.33 1.904 6.114C1.904 6.88867 2.058 7.57 2.366 8.158C2.674 8.73667 3.09867 9.18467 3.64 9.502C4.18133 9.81933 4.79267 9.978 5.474 9.978C6.18333 9.978 6.79 9.824 7.294 9.516C7.80733 9.19867 8.19933 8.746 8.47 8.158H9.996C9.632 9.09133 9.05333 9.81467 8.26 10.328C7.46667 10.832 6.538 11.084 5.474 11.084C4.56867 11.084 3.74267 10.874 2.996 10.454C2.25867 10.0247 1.67533 9.432 1.246 8.676C0.816667 7.92 0.602 7.066 0.602 6.114ZM11.4165 7.136C11.4165 6.352 11.5751 5.666 11.8925 5.078C12.2098 4.48067 12.6438 4.01867 13.1945 3.692C13.7545 3.36533 14.3751 3.202 15.0565 3.202C15.7285 3.202 16.3118 3.34667 16.8065 3.636C17.3011 3.92533 17.6698 4.28933 17.9125 4.728V3.328H19.2005V11H17.9125V9.572C17.6605 10.02 17.2825 10.3933 16.7785 10.692C16.2838 10.9813 15.7051 11.126 15.0425 11.126C14.3611 11.126 13.7451 10.958 13.1945 10.622C12.6438 10.286 12.2098 9.81467 11.8925 9.208C11.5751 8.60133 11.4165 7.91067 11.4165 7.136ZM17.9125 7.15C17.9125 6.57133 17.7958 6.06733 17.5625 5.638C17.3291 5.20867 17.0118 4.882 16.6105 4.658C16.2185 4.42467 15.7845 4.308 15.3085 4.308C14.8325 4.308 14.3985 4.42 14.0065 4.644C13.6145 4.868 13.3018 5.19467 13.0685 5.624C12.8351 6.05333 12.7185 6.55733 12.7185 7.136C12.7185 7.724 12.8351 8.23733 13.0685 8.676C13.3018 9.10533 13.6145 9.43667 14.0065 9.67C14.3985 9.894 14.8325 10.006 15.3085 10.006C15.7845 10.006 16.2185 9.894 16.6105 9.67C17.0118 9.43667 17.3291 9.10533 17.5625 8.676C17.7958 8.23733 17.9125 7.72867 17.9125 7.15ZM22.6274 4.574C22.8514 4.13533 23.1687 3.79467 23.5794 3.552C23.9994 3.30933 24.5081 3.188 25.1054 3.188V4.504H24.7694C23.3414 4.504 22.6274 5.27867 22.6274 6.828V11H21.3534V3.328H22.6274V4.574ZM27.85 4.574C28.074 4.13533 28.3914 3.79467 28.802 3.552C29.222 3.30933 29.7307 3.188 30.328 3.188V4.504H29.992C28.564 4.504 27.85 5.27867 27.85 6.828V11H26.576V3.328H27.85V4.574ZM38.7987 6.87C38.7987 7.11267 38.7847 7.36933 38.7567 7.64H32.6247C32.6714 8.396 32.928 8.98867 33.3947 9.418C33.8707 9.838 34.4447 10.048 35.1167 10.048C35.6674 10.048 36.1247 9.922 36.4887 9.67C36.862 9.40867 37.1234 9.06333 37.2727 8.634H38.6447C38.4394 9.37133 38.0287 9.97333 37.4127 10.44C36.7967 10.8973 36.0314 11.126 35.1167 11.126C34.3887 11.126 33.7354 10.9627 33.1567 10.636C32.5874 10.3093 32.1394 9.84733 31.8127 9.25C31.486 8.64333 31.3227 7.94333 31.3227 7.15C31.3227 6.35667 31.4814 5.66133 31.7987 5.064C32.116 4.46667 32.5594 4.00933 33.1287 3.692C33.7074 3.36533 34.37 3.202 35.1167 3.202C35.8447 3.202 36.4887 3.36067 37.0487 3.678C37.6087 3.99533 38.038 4.434 38.3367 4.994C38.6447 5.54467 38.7987 6.17 38.7987 6.87ZM37.4827 6.604C37.4827 6.11867 37.3754 5.70333 37.1607 5.358C36.946 5.00333 36.652 4.73733 36.2787 4.56C35.9147 4.37333 35.5087 4.28 35.0607 4.28C34.4167 4.28 33.866 4.48533 33.4087 4.896C32.9607 5.30667 32.704 5.876 32.6387 6.604H37.4827ZM41.1383 2.082C40.8957 2.082 40.6903 1.998 40.5223 1.83C40.3543 1.662 40.2703 1.45667 40.2703 1.214C40.2703 0.971333 40.3543 0.766 40.5223 0.598C40.6903 0.43 40.8957 0.345999 41.1383 0.345999C41.3717 0.345999 41.5677 0.43 41.7263 0.598C41.8943 0.766 41.9783 0.971333 41.9783 1.214C41.9783 1.45667 41.8943 1.662 41.7263 1.83C41.5677 1.998 41.3717 2.082 41.1383 2.082ZM41.7543 3.328V11H40.4803V3.328H41.7543ZM45.1997 4.574C45.4237 4.13533 45.741 3.79467 46.1517 3.552C46.5717 3.30933 47.0803 3.188 47.6777 3.188V4.504H47.3417C45.9137 4.504 45.1997 5.27867 45.1997 6.828V11H43.9257V3.328H45.1997V4.574ZM48.6723 7.136C48.6723 6.352 48.831 5.666 49.1483 5.078C49.4656 4.48067 49.8996 4.01867 50.4503 3.692C51.0103 3.36533 51.631 3.202 52.3123 3.202C52.9843 3.202 53.5676 3.34667 54.0623 3.636C54.557 3.92533 54.9256 4.28933 55.1683 4.728V3.328H56.4563V11H55.1683V9.572C54.9163 10.02 54.5383 10.3933 54.0343 10.692C53.5396 10.9813 52.961 11.126 52.2983 11.126C51.617 11.126 51.001 10.958 50.4503 10.622C49.8996 10.286 49.4656 9.81467 49.1483 9.208C48.831 8.60133 48.6723 7.91067 48.6723 7.136ZM55.1683 7.15C55.1683 6.57133 55.0516 6.06733 54.8183 5.638C54.585 5.20867 54.2676 4.882 53.8663 4.658C53.4743 4.42467 53.0403 4.308 52.5643 4.308C52.0883 4.308 51.6543 4.42 51.2623 4.644C50.8703 4.868 50.5576 5.19467 50.3243 5.624C50.091 6.05333 49.9743 6.55733 49.9743 7.136C49.9743 7.724 50.091 8.23733 50.3243 8.676C50.5576 9.10533 50.8703 9.43667 51.2623 9.67C51.6543 9.894 52.0883 10.006 52.5643 10.006C53.0403 10.006 53.4743 9.894 53.8663 9.67C54.2676 9.43667 54.585 9.10533 54.8183 8.676C55.0516 8.23733 55.1683 7.72867 55.1683 7.15ZM65.0577 11.126C64.4697 11.126 63.9423 11.028 63.4757 10.832C63.009 10.6267 62.6403 10.3467 62.3697 9.992C62.099 9.628 61.9497 9.21267 61.9217 8.746H63.2377C63.275 9.12867 63.4523 9.44133 63.7697 9.684C64.0963 9.92667 64.521 10.048 65.0437 10.048C65.529 10.048 65.9117 9.94067 66.1917 9.726C66.4717 9.51133 66.6117 9.24067 66.6117 8.914C66.6117 8.578 66.4623 8.33067 66.1637 8.172C65.865 8.004 65.403 7.84067 64.7777 7.682C64.2083 7.53267 63.7417 7.38333 63.3777 7.234C63.023 7.07533 62.715 6.84667 62.4537 6.548C62.2017 6.24 62.0757 5.83867 62.0757 5.344C62.0757 4.952 62.1923 4.59267 62.4257 4.266C62.659 3.93933 62.9903 3.68267 63.4197 3.496C63.849 3.3 64.339 3.202 64.8897 3.202C65.739 3.202 66.425 3.41667 66.9477 3.846C67.4703 4.27533 67.7503 4.86333 67.7877 5.61H66.5137C66.4857 5.20867 66.3223 4.88667 66.0237 4.644C65.7343 4.40133 65.3423 4.28 64.8477 4.28C64.3903 4.28 64.0263 4.378 63.7557 4.574C63.485 4.77 63.3497 5.02667 63.3497 5.344C63.3497 5.596 63.429 5.806 63.5877 5.974C63.7557 6.13267 63.961 6.26333 64.2037 6.366C64.4557 6.45933 64.801 6.56667 65.2397 6.688C65.7903 6.83733 66.2383 6.98667 66.5837 7.136C66.929 7.276 67.223 7.49067 67.4657 7.78C67.7177 8.06933 67.8483 8.44733 67.8577 8.914C67.8577 9.334 67.741 9.712 67.5077 10.048C67.2743 10.384 66.943 10.65 66.5137 10.846C66.0937 11.0327 65.6083 11.126 65.0577 11.126ZM76.6561 6.87C76.6561 7.11267 76.6421 7.36933 76.6141 7.64H70.4821C70.5288 8.396 70.7855 8.98867 71.2521 9.418C71.7281 9.838 72.3021 10.048 72.9741 10.048C73.5248 10.048 73.9821 9.922 74.3461 9.67C74.7195 9.40867 74.9808 9.06333 75.1301 8.634H76.5021C76.2968 9.37133 75.8861 9.97333 75.2701 10.44C74.6541 10.8973 73.8888 11.126 72.9741 11.126C72.2461 11.126 71.5928 10.9627 71.0141 10.636C70.4448 10.3093 69.9968 9.84733 69.6701 9.25C69.3435 8.64333 69.1801 7.94333 69.1801 7.15C69.1801 6.35667 69.3388 5.66133 69.6561 5.064C69.9735 4.46667 70.4168 4.00933 70.9861 3.692C71.5648 3.36533 72.2275 3.202 72.9741 3.202C73.7021 3.202 74.3461 3.36067 74.9061 3.678C75.4661 3.99533 75.8955 4.434 76.1941 4.994C76.5021 5.54467 76.6561 6.17 76.6561 6.87ZM75.3401 6.604C75.3401 6.11867 75.2328 5.70333 75.0181 5.358C74.8035 5.00333 74.5095 4.73733 74.1361 4.56C73.7721 4.37333 73.3661 4.28 72.9181 4.28C72.2741 4.28 71.7235 4.48533 71.2661 4.896C70.8181 5.30667 70.5615 5.876 70.4961 6.604H75.3401ZM87.5638 3.188C88.1611 3.188 88.6931 3.314 89.1598 3.566C89.6264 3.80867 89.9951 4.17733 90.2658 4.672C90.5364 5.16667 90.6718 5.76867 90.6718 6.478V11H89.4118V6.66C89.4118 5.89467 89.2204 5.31133 88.8378 4.91C88.4644 4.49933 87.9558 4.294 87.3118 4.294C86.6491 4.294 86.1218 4.50867 85.7298 4.938C85.3378 5.358 85.1418 5.96933 85.1418 6.772V11H83.8818V6.66C83.8818 5.89467 83.6904 5.31133 83.3078 4.91C82.9344 4.49933 82.4258 4.294 81.7818 4.294C81.1191 4.294 80.5918 4.50867 80.1998 4.938C79.8078 5.358 79.6118 5.96933 79.6118 6.772V11H78.3378V3.328H79.6118V4.434C79.8638 4.03267 80.1998 3.72467 80.6198 3.51C81.0491 3.29533 81.5204 3.188 82.0338 3.188C82.6778 3.188 83.2471 3.33267 83.7418 3.622C84.2364 3.91133 84.6051 4.336 84.8478 4.896C85.0624 4.35467 85.4171 3.93467 85.9118 3.636C86.4064 3.33733 86.9571 3.188 87.5638 3.188ZM102.01 1.242V2.278H97.768V5.568H101.212V6.604H97.768V11H96.494V1.242H102.01ZM104.823 4.574C105.047 4.13533 105.364 3.79467 105.775 3.552C106.195 3.30933 106.703 3.188 107.301 3.188V4.504H106.965C105.537 4.504 104.823 5.27867 104.823 6.828V11H103.549V3.328H104.823V4.574ZM112.117 11.126C111.399 11.126 110.745 10.9627 110.157 10.636C109.579 10.3093 109.121 9.84733 108.785 9.25C108.459 8.64333 108.295 7.94333 108.295 7.15C108.295 6.366 108.463 5.67533 108.799 5.078C109.145 4.47133 109.611 4.00933 110.199 3.692C110.787 3.36533 111.445 3.202 112.173 3.202C112.901 3.202 113.559 3.36533 114.147 3.692C114.735 4.00933 115.197 4.46667 115.533 5.064C115.879 5.66133 116.051 6.35667 116.051 7.15C116.051 7.94333 115.874 8.64333 115.519 9.25C115.174 9.84733 114.703 10.3093 114.105 10.636C113.508 10.9627 112.845 11.126 112.117 11.126ZM112.117 10.006C112.575 10.006 113.004 9.89867 113.405 9.684C113.807 9.46933 114.129 9.14733 114.371 8.718C114.623 8.28867 114.749 7.766 114.749 7.15C114.749 6.534 114.628 6.01133 114.385 5.582C114.143 5.15267 113.825 4.83533 113.433 4.63C113.041 4.41533 112.617 4.308 112.159 4.308C111.693 4.308 111.263 4.41533 110.871 4.63C110.489 4.83533 110.181 5.15267 109.947 5.582C109.714 6.01133 109.597 6.534 109.597 7.15C109.597 7.77533 109.709 8.30267 109.933 8.732C110.167 9.16133 110.475 9.48333 110.857 9.698C111.24 9.90333 111.66 10.006 112.117 10.006ZM121.464 3.188C122.398 3.188 123.154 3.47267 123.732 4.042C124.311 4.602 124.6 5.414 124.6 6.478V11H123.34V6.66C123.34 5.89467 123.149 5.31133 122.766 4.91C122.384 4.49933 121.861 4.294 121.198 4.294C120.526 4.294 119.99 4.504 119.588 4.924C119.196 5.344 119 5.95533 119 6.758V11H117.726V3.328H119V4.42C119.252 4.028 119.593 3.72467 120.022 3.51C120.461 3.29533 120.942 3.188 121.464 3.188ZM128.236 4.378V8.9C128.236 9.27333 128.315 9.53933 128.474 9.698C128.632 9.84733 128.908 9.922 129.3 9.922H130.238V11H129.09C128.38 11 127.848 10.8367 127.494 10.51C127.139 10.1833 126.962 9.64667 126.962 8.9V4.378H125.968V3.328H126.962V1.396H128.236V3.328H130.238V4.378H128.236ZM138.781 6.87C138.781 7.11267 138.767 7.36933 138.739 7.64H132.607C132.654 8.396 132.91 8.98867 133.377 9.418C133.853 9.838 134.427 10.048 135.099 10.048C135.65 10.048 136.107 9.922 136.471 9.67C136.844 9.40867 137.106 9.06333 137.255 8.634H138.627C138.422 9.37133 138.011 9.97333 137.395 10.44C136.779 10.8973 136.014 11.126 135.099 11.126C134.371 11.126 133.718 10.9627 133.139 10.636C132.57 10.3093 132.122 9.84733 131.795 9.25C131.468 8.64333 131.305 7.94333 131.305 7.15C131.305 6.35667 131.464 5.66133 131.781 5.064C132.098 4.46667 132.542 4.00933 133.111 3.692C133.69 3.36533 134.352 3.202 135.099 3.202C135.827 3.202 136.471 3.36067 137.031 3.678C137.591 3.99533 138.02 4.434 138.319 4.994C138.627 5.54467 138.781 6.17 138.781 6.87ZM137.465 6.604C137.465 6.11867 137.358 5.70333 137.143 5.358C136.928 5.00333 136.634 4.73733 136.261 4.56C135.897 4.37333 135.491 4.28 135.043 4.28C134.399 4.28 133.848 4.48533 133.391 4.896C132.943 5.30667 132.686 5.876 132.621 6.604H137.465ZM141.121 2.082C140.878 2.082 140.673 1.998 140.505 1.83C140.337 1.662 140.253 1.45667 140.253 1.214C140.253 0.971333 140.337 0.766 140.505 0.598C140.673 0.43 140.878 0.345999 141.121 0.345999C141.354 0.345999 141.55 0.43 141.709 0.598C141.877 0.766 141.961 0.971333 141.961 1.214C141.961 1.45667 141.877 1.662 141.709 1.83C141.55 1.998 141.354 2.082 141.121 2.082ZM141.737 3.328V11H140.463V3.328H141.737ZM145.182 4.574C145.406 4.13533 145.723 3.79467 146.134 3.552C146.554 3.30933 147.063 3.188 147.66 3.188V4.504H147.324C145.896 4.504 145.182 5.27867 145.182 6.828V11H143.908V3.328H145.182V4.574ZM148.655 7.136C148.655 6.352 148.813 5.666 149.131 5.078C149.448 4.48067 149.882 4.01867 150.433 3.692C150.993 3.36533 151.613 3.202 152.295 3.202C152.967 3.202 153.55 3.34667 154.045 3.636C154.539 3.92533 154.908 4.28933 155.151 4.728V3.328H156.439V11H155.151V9.572C154.899 10.02 154.521 10.3933 154.017 10.692C153.522 10.9813 152.943 11.126 152.281 11.126C151.599 11.126 150.983 10.958 150.433 10.622C149.882 10.286 149.448 9.81467 149.131 9.208C148.813 8.60133 148.655 7.91067 148.655 7.136ZM155.151 7.15C155.151 6.57133 155.034 6.06733 154.801 5.638C154.567 5.20867 154.25 4.882 153.849 4.658C153.457 4.42467 153.023 4.308 152.547 4.308C152.071 4.308 151.637 4.42 151.245 4.644C150.853 4.868 150.54 5.19467 150.307 5.624C150.073 6.05333 149.957 6.55733 149.957 7.136C149.957 7.724 150.073 8.23733 150.307 8.676C150.54 9.10533 150.853 9.43667 151.245 9.67C151.637 9.894 152.071 10.006 152.547 10.006C153.023 10.006 153.457 9.894 153.849 9.67C154.25 9.43667 154.567 9.10533 154.801 8.676C155.034 8.23733 155.151 7.72867 155.151 7.15Z" fill="#474646"/>
</svg>
