<svg width="73" height="12" viewBox="0 0 73 12" fill="none" xmlns="http://www.w3.org/2000/svg">
<path d="M1.352 9.964H4.768V11H0.0780001V1.242H1.352V9.964ZM6.77897 2.082C6.5363 2.082 6.33097 1.998 6.16297 1.83C5.99497 1.662 5.91097 1.45667 5.91097 1.214C5.91097 0.971333 5.99497 0.766 6.16297 0.598C6.33097 0.43 6.5363 0.345999 6.77897 0.345999C7.0123 0.345999 7.2083 0.43 7.36697 0.598C7.53497 0.766 7.61897 0.971333 7.61897 1.214C7.61897 1.45667 7.53497 1.662 7.36697 1.83C7.2083 1.998 7.0123 2.082 6.77897 2.082ZM7.39497 3.328V11H6.12097V3.328H7.39497ZM13.8503 11L10.8403 7.612V11H9.56628V0.64H10.8403V6.73L13.7943 3.328H15.5723L11.9603 7.15L15.5863 11H13.8503ZM23.7714 6.87C23.7714 7.11267 23.7574 7.36933 23.7294 7.64H17.5974C17.644 8.396 17.9007 8.98867 18.3674 9.418C18.8434 9.838 19.4174 10.048 20.0894 10.048C20.64 10.048 21.0974 9.922 21.4614 9.67C21.8347 9.40867 22.096 9.06333 22.2454 8.634H23.6174C23.412 9.37133 23.0014 9.97333 22.3854 10.44C21.7694 10.8973 21.004 11.126 20.0894 11.126C19.3614 11.126 18.708 10.9627 18.1294 10.636C17.56 10.3093 17.112 9.84733 16.7854 9.25C16.4587 8.64333 16.2954 7.94333 16.2954 7.15C16.2954 6.35667 16.454 5.66133 16.7714 5.064C17.0887 4.46667 17.532 4.00933 18.1014 3.692C18.68 3.36533 19.3427 3.202 20.0894 3.202C20.8174 3.202 21.4614 3.36067 22.0214 3.678C22.5814 3.99533 23.0107 4.434 23.3094 4.994C23.6174 5.54467 23.7714 6.17 23.7714 6.87ZM22.4554 6.604C22.4554 6.11867 22.348 5.70333 22.1334 5.358C21.9187 5.00333 21.6247 4.73733 21.2514 4.56C20.8874 4.37333 20.4814 4.28 20.0334 4.28C19.3894 4.28 18.8387 4.48533 18.3814 4.896C17.9334 5.30667 17.6767 5.876 17.6114 6.604H22.4554ZM28.7094 7.136C28.7094 6.352 28.8681 5.666 29.1854 5.078C29.5028 4.48067 29.9368 4.01867 30.4874 3.692C31.0474 3.36533 31.6681 3.202 32.3494 3.202C33.0214 3.202 33.6048 3.34667 34.0994 3.636C34.5941 3.92533 34.9628 4.28933 35.2054 4.728V3.328H36.4934V11H35.2054V9.572C34.9534 10.02 34.5754 10.3933 34.0714 10.692C33.5768 10.9813 32.9981 11.126 32.3354 11.126C31.6541 11.126 31.0381 10.958 30.4874 10.622C29.9368 10.286 29.5028 9.81467 29.1854 9.208C28.8681 8.60133 28.7094 7.91067 28.7094 7.136ZM35.2054 7.15C35.2054 6.57133 35.0888 6.06733 34.8554 5.638C34.6221 5.20867 34.3048 4.882 33.9034 4.658C33.5114 4.42467 33.0774 4.308 32.6014 4.308C32.1254 4.308 31.6914 4.42 31.2994 4.644C30.9074 4.868 30.5948 5.19467 30.3614 5.624C30.1281 6.05333 30.0114 6.55733 30.0114 7.136C30.0114 7.724 30.1281 8.23733 30.3614 8.676C30.5948 9.10533 30.9074 9.43667 31.2994 9.67C31.6914 9.894 32.1254 10.006 32.6014 10.006C33.0774 10.006 33.5114 9.894 33.9034 9.67C34.3048 9.43667 34.6221 9.10533 34.8554 8.676C35.0888 8.23733 35.2054 7.72867 35.2054 7.15ZM47.2648 5.974C47.6194 6.03 47.9414 6.17467 48.2308 6.408C48.5294 6.64133 48.7628 6.93067 48.9308 7.276C49.1081 7.62133 49.1968 7.99 49.1968 8.382C49.1968 8.87667 49.0708 9.32467 48.8188 9.726C48.5668 10.118 48.1981 10.4307 47.7128 10.664C47.2368 10.888 46.6721 11 46.0188 11H42.3788V1.242H45.8788C46.5414 1.242 47.1061 1.354 47.5728 1.578C48.0394 1.79267 48.3894 2.08667 48.6228 2.46C48.8561 2.83333 48.9728 3.25333 48.9728 3.72C48.9728 4.29867 48.8141 4.77933 48.4968 5.162C48.1888 5.53533 47.7781 5.806 47.2648 5.974ZM43.6528 5.456H45.7948C46.3921 5.456 46.8541 5.316 47.1808 5.036C47.5074 4.756 47.6708 4.36867 47.6708 3.874C47.6708 3.37933 47.5074 2.992 47.1808 2.712C46.8541 2.432 46.3828 2.292 45.7668 2.292H43.6528V5.456ZM45.9068 9.95C46.5414 9.95 47.0361 9.80067 47.3908 9.502C47.7454 9.20333 47.9228 8.788 47.9228 8.256C47.9228 7.71467 47.7361 7.29 47.3628 6.982C46.9894 6.66467 46.4901 6.506 45.8648 6.506H43.6528V9.95H45.9068ZM54.3107 11.126C53.5921 11.126 52.9387 10.9627 52.3507 10.636C51.7721 10.3093 51.3147 9.84733 50.9787 9.25C50.6521 8.64333 50.4887 7.94333 50.4887 7.15C50.4887 6.366 50.6567 5.67533 50.9927 5.078C51.3381 4.47133 51.8047 4.00933 52.3927 3.692C52.9807 3.36533 53.6387 3.202 54.3667 3.202C55.0947 3.202 55.7527 3.36533 56.3407 3.692C56.9287 4.00933 57.3907 4.46667 57.7267 5.064C58.0721 5.66133 58.2447 6.35667 58.2447 7.15C58.2447 7.94333 58.0674 8.64333 57.7127 9.25C57.3674 9.84733 56.8961 10.3093 56.2987 10.636C55.7014 10.9627 55.0387 11.126 54.3107 11.126ZM54.3107 10.006C54.7681 10.006 55.1974 9.89867 55.5987 9.684C56.0001 9.46933 56.3221 9.14733 56.5647 8.718C56.8167 8.28867 56.9427 7.766 56.9427 7.15C56.9427 6.534 56.8214 6.01133 56.5787 5.582C56.3361 5.15267 56.0187 4.83533 55.6267 4.63C55.2347 4.41533 54.8101 4.308 54.3527 4.308C53.8861 4.308 53.4567 4.41533 53.0647 4.63C52.6821 4.83533 52.3741 5.15267 52.1407 5.582C51.9074 6.01133 51.7907 6.534 51.7907 7.15C51.7907 7.77533 51.9027 8.30267 52.1267 8.732C52.3601 9.16133 52.6681 9.48333 53.0507 9.698C53.4334 9.90333 53.8534 10.006 54.3107 10.006ZM62.6358 11.126C62.0478 11.126 61.5205 11.028 61.0538 10.832C60.5871 10.6267 60.2185 10.3467 59.9478 9.992C59.6771 9.628 59.5278 9.21267 59.4998 8.746H60.8158C60.8531 9.12867 61.0305 9.44133 61.3478 9.684C61.6745 9.92667 62.0991 10.048 62.6218 10.048C63.1071 10.048 63.4898 9.94067 63.7698 9.726C64.0498 9.51133 64.1898 9.24067 64.1898 8.914C64.1898 8.578 64.0405 8.33067 63.7418 8.172C63.4431 8.004 62.9811 7.84067 62.3558 7.682C61.7865 7.53267 61.3198 7.38333 60.9558 7.234C60.6011 7.07533 60.2931 6.84667 60.0318 6.548C59.7798 6.24 59.6538 5.83867 59.6538 5.344C59.6538 4.952 59.7705 4.59267 60.0038 4.266C60.2371 3.93933 60.5685 3.68267 60.9978 3.496C61.4271 3.3 61.9171 3.202 62.4678 3.202C63.3171 3.202 64.0031 3.41667 64.5258 3.846C65.0485 4.27533 65.3285 4.86333 65.3658 5.61H64.0918C64.0638 5.20867 63.9005 4.88667 63.6018 4.644C63.3125 4.40133 62.9205 4.28 62.4258 4.28C61.9685 4.28 61.6045 4.378 61.3338 4.574C61.0631 4.77 60.9278 5.02667 60.9278 5.344C60.9278 5.596 61.0071 5.806 61.1658 5.974C61.3338 6.13267 61.5391 6.26333 61.7818 6.366C62.0338 6.45933 62.3791 6.56667 62.8178 6.688C63.3685 6.83733 63.8165 6.98667 64.1618 7.136C64.5071 7.276 64.8011 7.49067 65.0438 7.78C65.2958 8.06933 65.4265 8.44733 65.4358 8.914C65.4358 9.334 65.3191 9.712 65.0858 10.048C64.8525 10.384 64.5211 10.65 64.0918 10.846C63.6718 11.0327 63.1865 11.126 62.6358 11.126ZM69.9503 11.126C69.3623 11.126 68.8349 11.028 68.3683 10.832C67.9016 10.6267 67.5329 10.3467 67.2623 9.992C66.9916 9.628 66.8423 9.21267 66.8143 8.746H68.1303C68.1676 9.12867 68.3449 9.44133 68.6623 9.684C68.9889 9.92667 69.4136 10.048 69.9363 10.048C70.4216 10.048 70.8043 9.94067 71.0843 9.726C71.3643 9.51133 71.5043 9.24067 71.5043 8.914C71.5043 8.578 71.3549 8.33067 71.0563 8.172C70.7576 8.004 70.2956 7.84067 69.6703 7.682C69.1009 7.53267 68.6343 7.38333 68.2703 7.234C67.9156 7.07533 67.6076 6.84667 67.3463 6.548C67.0943 6.24 66.9683 5.83867 66.9683 5.344C66.9683 4.952 67.0849 4.59267 67.3183 4.266C67.5516 3.93933 67.8829 3.68267 68.3123 3.496C68.7416 3.3 69.2316 3.202 69.7823 3.202C70.6316 3.202 71.3176 3.41667 71.8403 3.846C72.3629 4.27533 72.6429 4.86333 72.6803 5.61H71.4063C71.3783 5.20867 71.2149 4.88667 70.9163 4.644C70.6269 4.40133 70.2349 4.28 69.7403 4.28C69.2829 4.28 68.9189 4.378 68.6483 4.574C68.3776 4.77 68.2423 5.02667 68.2423 5.344C68.2423 5.596 68.3216 5.806 68.4803 5.974C68.6483 6.13267 68.8536 6.26333 69.0963 6.366C69.3483 6.45933 69.6936 6.56667 70.1323 6.688C70.6829 6.83733 71.1309 6.98667 71.4763 7.136C71.8216 7.276 72.1156 7.49067 72.3583 7.78C72.6103 8.06933 72.7409 8.44733 72.7503 8.914C72.7503 9.334 72.6336 9.712 72.4003 10.048C72.1669 10.384 71.8356 10.65 71.4063 10.846C70.9863 11.0327 70.5009 11.126 69.9503 11.126Z" fill="#474646"/>
</svg>
